# Blender v2.92.0 OBJ File: 'untitled.blend'
# www.blender.org
mtllib DamagePirateShip.mtl
o GG42B2PVJNLDKDUQTT4PBC2O5
v -0.392220 -0.322005 -1.063410
v -0.392220 -0.458992 -0.744942
v -0.392220 -0.322005 -0.744942
v 0.065982 -0.322005 -1.063410
v -0.392220 -0.458992 -1.063410
v -0.392220 -0.322005 -1.063410
v 0.065982 -0.322005 -0.744942
v 0.065982 -0.458992 -1.063410
v 0.065982 -0.458992 -0.744942
v 0.650214 -0.332946 -0.236704
v -0.629919 -0.358217 -0.211432
v 0.650214 -0.358217 -0.211433
v 0.650214 -0.358217 -0.261976
v -0.629919 -0.332945 -0.236704
v 0.650214 -0.383489 -0.236704
v -0.629919 -0.358217 -0.261976
v 0.650214 -0.358217 -0.261976
v -0.629919 -0.383489 -0.236704
v 0.650214 -0.358217 -0.261976
v 0.650214 -0.358217 -0.211433
v 0.650214 -0.383489 -0.236704
v -0.629919 -0.358217 -0.261976
v -0.629919 -0.358217 -0.211432
v -0.629919 -0.332945 -0.236704
v -0.001765 -0.185926 1.250000
v -0.017586 -0.349044 0.622275
v -0.017586 -0.402125 0.639629
v 0.022439 -0.162920 1.242479
v -0.001765 -0.162920 1.242479
v 0.022439 -0.185926 1.250000
v 0.038260 -0.349044 0.622275
v -0.001765 -0.185926 1.250000
v 0.038260 -0.402125 0.639629
v 0.022439 -0.162920 1.242479
v -0.001765 -0.185926 1.250000
v 0.022439 -0.185926 1.250000
v 0.010147 -0.657552 -1.213322
v 0.293358 -0.898384 -1.114498
v 0.010147 -0.991118 -1.084551
v 0.453064 -0.722247 -0.486185
v 0.320845 -0.898383 0.089850
v 0.320845 -0.929877 -0.485557
v 0.010147 -0.991118 -1.084551
v 0.010147 -1.022611 -0.486348
v 0.453064 -0.657551 0.255645
v 0.010148 -0.991118 0.298374
v 0.464322 -0.416719 0.298374
v 0.010148 -0.703919 0.578511
v 0.464322 -0.481415 -0.486348
v 0.436836 -0.416720 -1.218547
v 0.010147 -0.360940 -1.250000
v 0.425578 -0.657551 -1.181869
v 0.436836 -0.416720 -1.218547
v 0.464322 -0.481415 -0.486348
v 0.010148 -0.486333 0.298374
v 0.464322 -0.416719 0.298374
v 0.010148 -0.991118 0.298374
v 0.293358 -0.898384 -1.114498
v 0.010148 -0.332536 0.711249
v 0.010147 -0.551028 -0.487911
v 0.436836 -0.416720 -1.218547
v 0.010147 -0.360940 -1.250000
v -0.273063 -0.898384 -1.114498
v -0.405283 -0.657551 -1.181869
v -0.432769 -0.722247 -0.486186
v -0.300550 -0.898383 0.089850
v -0.432769 -0.657551 0.255646
v -0.300550 -0.929877 -0.485557
v -0.444027 -0.416719 0.298374
v 0.010148 -0.332536 0.711249
v -0.444027 -0.481415 -0.486348
v -0.416541 -0.416720 -1.218547
v -0.405283 -0.657551 -1.181869
v -0.444027 -0.481415 -0.486348
v -0.444027 -0.416719 0.298374
v -0.273063 -0.898384 -1.114498
v -0.416541 -0.416720 -1.218547
v 0.650214 0.451094 -0.236704
v -0.629919 0.425822 -0.211432
v 0.650214 0.425822 -0.211433
v 0.650214 0.425822 -0.261976
v -0.629919 0.451094 -0.236704
v 0.650214 0.400551 -0.236704
v -0.629919 0.425822 -0.261976
v 0.650214 0.425822 -0.261976
v -0.629919 0.400551 -0.236704
v 0.650214 0.400551 -0.236704
v 0.650214 0.451094 -0.236704
v 0.650214 0.425822 -0.211433
v -0.629919 0.451094 -0.236704
v -0.629919 0.400551 -0.236704
v -0.629919 0.425822 -0.211432
v 0.010147 0.633642 -0.009630
v 0.010147 0.633642 -0.009630
v -0.006967 1.022611 -0.231385
v 0.010147 -0.646930 -0.191896
v 0.010147 1.022611 -0.214270
v 0.010147 1.022611 -0.248500
v -0.029342 -0.646930 -0.231385
v 0.010147 1.022611 -0.248500
v 0.049637 -0.646930 -0.231385
v 0.010147 -0.646930 -0.270874
v 0.027262 1.022611 -0.231385
v 0.027262 1.022611 -0.231385
v -0.006967 1.022611 -0.231385
v 0.010147 1.022611 -0.214270
v -0.392220 -0.322005 -1.063410
v -0.392220 -0.458992 -1.063410
v 0.065982 -0.458992 -1.063410
v 0.065982 -0.458992 -0.744942
v -0.392220 -0.458992 -0.744942
v -0.392220 -0.322005 -1.063410
v -0.629919 -0.358217 -0.261976
v 0.650214 -0.332946 -0.236704
v -0.629919 -0.383489 -0.236704
v -0.017586 -0.402125 0.639629
v -0.001765 -0.162920 1.242479
v 0.425578 -0.657551 -1.181869
v -0.629919 0.425822 -0.261976
v 0.650214 0.425822 -0.261976
v -0.629919 0.425822 -0.261976
v 0.010147 -0.646930 -0.270874
v 0.010147 1.022611 -0.248500
v 0.415553 -0.148093 -0.634776
v 0.415727 -0.199533 -0.499385
v 0.415553 -0.141600 -0.632353
v 0.419018 -0.144847 -0.633565
v 0.412262 -0.202779 -0.500596
v 0.412088 -0.144847 -0.633565
v 0.415553 -0.209645 -0.675660
v 0.415727 -0.266952 -0.524549
v 0.415553 -0.203152 -0.673236
v 0.419018 -0.206398 -0.674448
v 0.412262 -0.270198 -0.525761
v 0.412088 -0.206398 -0.674448
v 0.415553 -0.341429 -0.771176
v 0.415727 -0.410937 -0.587378
v 0.415553 -0.334936 -0.768752
v 0.419018 -0.338183 -0.769964
v 0.412262 -0.414183 -0.588590
v 0.412088 -0.338183 -0.769964
v 0.415553 -0.272898 -0.723351
v 0.415727 -0.336278 -0.555971
v 0.415553 -0.266406 -0.720928
v 0.419018 -0.269652 -0.722139
v 0.412262 -0.339524 -0.557183
v 0.412088 -0.269652 -0.722139
v 0.410120 -0.473844 -0.865467
v 0.443908 0.419999 -0.237405
v 0.402395 -0.473844 -0.865467
v 0.406258 -0.469981 -0.865467
v 0.447771 0.416136 -0.237404
v 0.406258 -0.477707 -0.865467
v 0.410120 -0.485458 -0.617531
v 0.402394 -0.485458 -0.617531
v 0.406258 -0.481594 -0.617531
v 0.406258 -0.489320 -0.617531
v 0.410120 -0.473844 -0.740620
v 0.402395 -0.473844 -0.740620
v 0.406258 -0.469981 -0.740620
v 0.406258 -0.477707 -0.740620
v -0.423613 0.419999 -0.237404
v -0.431339 0.419999 -0.237404
v -0.427476 0.416136 -0.237404
v -0.427476 0.423863 -0.237404
v 0.017395 0.793441 -0.237404
v 0.009669 -0.396717 -1.175596
v 0.017395 -0.396717 -1.175596
v 0.013532 -0.392854 -1.175596
v 0.013532 0.789578 -0.237404
v 0.013532 -0.400580 -1.175596
v 0.009669 0.793441 -0.235002
v 0.017395 -0.187691 1.208899
v 0.009669 -0.187691 1.208899
v 0.013532 -0.183827 1.208899
v 0.013532 0.789578 -0.235002
v 0.013532 -0.191553 1.208899
v 0.026694 0.789578 -0.228646
v 0.600795 0.435214 -0.228646
v 0.415553 -0.148092 -0.634776
v 0.415727 -0.199533 -0.499385
v 0.415727 -0.206026 -0.501809
v 0.419018 -0.144846 -0.633565
v 0.419193 -0.202779 -0.500596
v 0.415727 -0.273445 -0.526972
v 0.419018 -0.206398 -0.674448
v 0.419193 -0.270198 -0.525761
v 0.415553 -0.341429 -0.771176
v 0.415727 -0.410937 -0.587378
v 0.415727 -0.417429 -0.589801
v 0.419018 -0.338182 -0.769964
v 0.419193 -0.414183 -0.588590
v 0.415553 -0.272898 -0.723351
v 0.415727 -0.342771 -0.558395
v 0.419018 -0.269651 -0.722139
v 0.419193 -0.339524 -0.557183
v 0.410120 -0.473843 -0.865467
v 0.451634 0.419999 -0.237405
v 0.447771 0.416137 -0.237404
v 0.447771 0.423863 -0.237405
v 0.410120 -0.473843 -0.740620
v -0.423613 0.420000 -0.237404
v 0.013532 -0.392854 -1.175596
v 0.013532 0.789578 -0.237404
v 0.013532 0.797304 -0.237404
v 0.017395 -0.187690 1.208899
v 0.009669 0.793442 -0.235002
v 0.009669 -0.187690 1.208899
v 0.013532 0.797304 -0.235002
v 0.600795 0.439077 -0.232509
v 0.600795 0.439077 -0.224783
v 0.026694 0.797304 -0.228646
v -0.580500 0.439077 -0.232509
v -0.580500 0.439077 -0.224783
v -0.006399 0.789578 -0.228646
v 0.415727 -0.206026 -0.501809
v 0.415727 -0.417429 -0.589802
v 0.009669 0.793441 -0.237404
v 0.013532 0.797304 -0.237404
v 0.017395 0.793441 -0.235002
v 0.026694 0.797304 -0.228646
v 0.412088 -0.144846 -0.633565
v 0.412088 -0.206398 -0.674448
v 0.415553 -0.334936 -0.768752
v 0.412088 -0.338182 -0.769964
v 0.412088 -0.269651 -0.722139
v 0.402395 -0.473843 -0.865467
v 0.406258 -0.477706 -0.865467
v 0.402395 -0.473843 -0.740620
v 0.406258 -0.477706 -0.740620
v -0.431339 0.420000 -0.237404
v 0.017395 0.793442 -0.235002
v 0.013532 -0.191553 1.208899
v -0.006399 0.797304 -0.228646
v 0.027035 0.896059 -0.228646
v 0.332095 0.822154 -0.228646
v 0.332095 0.896059 -0.228646
v 0.027035 0.969964 -0.228646
v 0.010147 -0.039996 0.040708
v 0.650214 -0.358218 -0.211432
v 0.650214 0.425822 -0.211433
v 0.010147 0.425822 -0.211432
v -0.629919 0.425822 -0.211432
v -0.629919 -0.358218 -0.211432
v 0.010147 -0.358218 -0.211432
v 0.027035 0.822154 -0.228646
v -0.328740 -0.094148 -0.899129
v -0.328740 -0.199261 -0.794016
v -0.328740 -0.199261 -1.004240
v -0.328740 -0.304372 -0.899129
v -0.328740 -0.304372 -0.899129
v -0.070439 -0.199261 -0.758578
v -0.070439 -0.339811 -0.899129
v 0.029347 -0.199261 -0.899129
v -0.070439 -0.058709 -0.899129
v -0.070439 -0.199261 -1.039679
v -0.070439 -0.199261 -0.758578
v -0.270735 -0.330682 -0.899129
v -0.070439 -0.339811 -0.899129
v -0.070439 -0.339811 -0.899129
v -0.270735 -0.199261 -1.030550
v -0.070439 -0.199261 -1.039679
v -0.270735 -0.067838 -0.899129
v -0.070439 -0.058709 -0.899129
v -0.270735 -0.199261 -0.767706
v -0.168993 -0.199261 -0.824655
v -0.168993 -0.273734 -0.899129
v -0.168993 -0.124787 -0.899129
v -0.168993 -0.273734 -0.899129
v -0.168993 -0.199261 -0.973602
v -0.168993 -0.124787 -0.899129
v -0.168993 -0.273734 -0.899129
v -0.168993 -0.199261 -0.824655
v -0.270735 -0.330682 -0.899129
v -0.168993 -0.199261 -0.973602
vt 0.640600 0.890600
vt 0.625000 0.859400
vt 0.640600 0.859400
vt 0.703100 0.890600
vt 0.640600 0.906200
vt 0.640600 0.890600
vt 0.703100 0.859400
vt 0.718800 0.890600
vt 0.703100 0.843800
vt 0.468800 0.984400
vt 0.437500 0.968800
vt 0.468800 0.968800
vt 0.468800 1.000000
vt 0.437500 0.984400
vt 0.468800 0.953100
vt 0.437500 0.937500
vt 0.468800 0.937500
vt 0.437500 0.953100
vt 0.406200 0.968800
vt 0.375000 1.000000
vt 0.375000 0.968800
vt 0.406200 1.000000
vt 0.375000 0.968800
vt 0.406200 0.968800
vt 0.687500 1.000000
vt 0.671900 0.921900
vt 0.687500 0.921900
vt 0.656200 1.000000
vt 0.671900 1.000000
vt 0.640600 1.000000
vt 0.656200 0.921900
vt 0.625000 1.000000
vt 0.640600 0.921900
vt 0.609400 1.000000
vt 0.593800 0.984400
vt 0.609400 0.984400
vt 1.000000 0.875000
vt 0.937500 0.828100
vt 1.000000 0.828100
vt 0.859400 0.875000
vt 0.796900 0.828100
vt 0.859400 0.828100
vt 0.921900 0.781200
vt 0.859400 0.781200
vt 0.796900 0.875000
vt 0.734400 0.828100
vt 0.937500 0.921900
vt 1.000000 0.921900
vt 0.859400 0.921900
vt 0.921900 0.875000
vt 0.921900 0.921900
vt 0.859400 0.937500
vt 0.796900 1.000000
vt 0.796900 0.937500
vt 0.796900 0.781200
vt 0.921900 0.828100
vt 0.859400 1.000000
vt 0.921900 0.937500
vt 0.921900 1.000000
vt 0.937500 0.828100
vt 0.937500 0.875000
vt 0.859400 0.875000
vt 0.796900 0.828100
vt 0.796900 0.875000
vt 0.859400 0.828100
vt 0.734400 0.875000
vt 0.796900 0.921900
vt 0.734400 0.921900
vt 0.859400 0.937500
vt 0.796900 0.937500
vt 0.921900 0.828100
vt 0.921900 0.875000
vt 0.734400 1.000000
vt 0.468800 0.984400
vt 0.437500 0.968800
vt 0.468800 0.968800
vt 0.468800 1.000000
vt 0.437500 0.984400
vt 0.468800 0.953100
vt 0.437500 0.937500
vt 0.468800 0.937500
vt 0.437500 0.953100
vt 0.375000 0.968800
vt 0.406200 1.000000
vt 0.375000 1.000000
vt 0.406200 0.968800
vt 0.375000 1.000000
vt 0.375000 0.968800
vt 0.531200 1.000000
vt 0.546900 0.921900
vt 0.546900 1.000000
vt 0.515600 1.000000
vt 0.531200 0.921900
vt 0.578100 1.000000
vt 0.562500 0.921900
vt 0.578100 0.921900
vt 0.562500 1.000000
vt 0.500000 0.984400
vt 0.484400 1.000000
vt 0.484400 0.984400
vt 0.640600 0.890600
vt 0.625000 0.890600
vt 0.703100 0.906200
vt 0.718800 0.859400
vt 0.640600 0.843800
vt 0.437500 1.000000
vt 0.406200 1.000000
vt 0.375000 1.000000
vt 0.625000 0.921900
vt 0.593800 1.000000
vt 0.937500 0.875000
vt 0.796900 0.921900
vt 0.937500 0.921900
vt 0.921900 0.937500
vt 0.437500 1.000000
vt 0.406200 0.968800
vt 0.406200 1.000000
vt 0.515600 0.921900
vt 0.500000 1.000000
vt 0.296900 0.703100
vt 0.281200 0.687500
vt 0.296900 0.687500
vt 0.296900 0.703100
vt 0.281200 0.687500
vt 0.296900 0.687500
vt 0.296900 0.703100
vt 0.281200 0.687500
vt 0.296900 0.687500
vt 0.296900 0.703100
vt 0.281200 0.687500
vt 0.296900 0.687500
vt 0.296900 0.703100
vt 0.281200 0.687500
vt 0.296900 0.687500
vt 0.296900 0.703100
vt 0.281200 0.687500
vt 0.296900 0.687500
vt 0.296900 0.703100
vt 0.281200 0.687500
vt 0.296900 0.687500
vt 0.296900 0.703100
vt 0.281200 0.687500
vt 0.296900 0.687500
vt 0.296900 0.703100
vt 0.281200 0.687500
vt 0.296900 0.687500
vt 0.296900 0.703100
vt 0.281200 0.687500
vt 0.296900 0.687500
vt 0.296900 0.703100
vt 0.296900 0.687500
vt 0.296900 0.703100
vt 0.296900 0.687500
vt 0.296900 0.703100
vt 0.296900 0.687500
vt 0.296900 0.703100
vt 0.281200 0.687500
vt 0.296900 0.687500
vt 0.281200 0.703100
vt 0.296900 0.687500
vt 0.296900 0.703100
vt 0.296900 0.703100
vt 0.281200 0.687500
vt 0.296900 0.687500
vt 0.296900 0.703100
vt 0.281200 0.687500
vt 0.281200 0.703100
vt 0.296900 0.703100
vt 0.281200 0.703100
vt 0.296900 0.703100
vt 0.281200 0.703100
vt 0.296900 0.703100
vt 0.281200 0.687500
vt 0.281200 0.703100
vt 0.296900 0.703100
vt 0.281200 0.703100
vt 0.296900 0.703100
vt 0.281200 0.703100
vt 0.296900 0.703100
vt 0.281200 0.703100
vt 0.296900 0.703100
vt 0.281200 0.703100
vt 0.281200 0.687500
vt 0.281200 0.703100
vt 0.296900 0.703100
vt 0.296900 0.687500
vt 0.281200 0.703100
vt 0.296900 0.703100
vt 0.296900 0.703100
vt 0.281200 0.687500
vt 0.281200 0.703100
vt 0.296900 0.687500
vt 0.281200 0.703100
vt 0.296900 0.703100
vt 0.281200 0.703100
vt 0.281200 0.703100
vt 0.281200 0.703100
vt 0.281200 0.703100
vt 0.296900 0.703100
vt 0.281200 0.687500
vt 0.281200 0.703100
vt 0.281200 0.687500
vt 0.296900 0.687500
vt 0.296900 0.687500
vt 0.296900 0.687500
vt 0.296900 0.687500
vt 0.296900 0.687500
vt 0.296900 0.687500
vt 0.296900 0.687500
vt 0.296900 0.687500
vt 0.296900 0.687500
vt 0.296900 0.687500
vt 0.281200 0.687500
vt 0.296900 0.687500
vt 0.000000 0.765600
vt 0.312500 0.671900
vt 0.312500 0.765600
vt 0.093800 0.921900
vt 0.000000 1.000000
vt 0.093800 1.000000
vt 0.000000 0.875000
vt 0.093800 0.875000
vt 0.000000 0.671900
vt 0.000000 0.859400
vt 0.468800 0.812500
vt 0.500000 0.812500
vt 0.484400 0.828100
vt 0.468800 0.843800
vt 0.500000 0.843800
vt 0.484400 0.718800
vt 0.453100 0.687500
vt 0.484400 0.687500
vt 0.484400 0.796900
vt 0.453100 0.781200
vt 0.484400 0.781200
vt 0.453100 0.750000
vt 0.484400 0.750000
vt 0.453100 0.718800
vt 0.437500 0.718800
vt 0.437500 0.687500
vt 0.437500 0.796900
vt 0.437500 0.781200
vt 0.468800 0.875000
vt 0.484400 0.859400
vt 0.484400 0.875000
vt 0.453100 0.796900
vt 0.437500 0.750000
vt 0.468800 0.859400
vn -1.0000 0.0000 0.0000
vn 0.0000 0.0000 -1.0000
vn 1.0000 -0.0000 0.0000
vn 0.0000 0.0000 1.0000
vn 0.0000 1.0000 0.0000
vn 0.0000 0.7071 0.7071
vn 0.0000 0.7071 -0.7071
vn 0.0000 -0.7071 -0.7071
vn 0.0000 -0.7071 0.7071
vn -0.9997 0.0076 0.0232
vn 0.0000 0.9578 -0.2874
vn 0.9997 0.0076 0.0232
vn 0.0000 -0.9426 0.3339
vn 0.0000 0.3107 0.9505
vn 0.0193 -0.3601 -0.9327
vn 0.8432 -0.5368 0.0294
vn 0.2858 -0.9570 -0.0504
vn 0.5453 -0.6574 0.5201
vn 0.0570 -0.1225 -0.9908
vn 0.9977 -0.0531 -0.0421
vn -0.1510 0.9852 -0.0812
vn 0.3092 -0.9502 0.0381
vn 0.8641 -0.4969 -0.0803
vn 0.1084 0.9646 0.2406
vn -0.0719 -0.3051 -0.9496
vn -0.8627 -0.5039 0.0439
vn -0.2858 -0.9570 -0.0504
vn -0.5113 -0.6001 0.6152
vn -0.6217 -0.2636 0.7376
vn 0.1510 0.9852 -0.0812
vn -0.3092 -0.9502 0.0381
vn -0.8641 -0.4969 -0.0803
vn 0.1422 0.9276 -0.3455
vn -0.7071 0.0095 0.7071
vn -0.7071 0.0095 -0.7071
vn 0.7071 0.0095 -0.7071
vn 0.7071 0.0095 0.7071
vn 0.0719 -0.3051 -0.9496
vn 0.8627 -0.5039 0.0439
vn 0.3048 -0.9505 -0.0609
vn 0.5113 -0.6001 0.6152
vn 0.6217 -0.2636 0.7376
vn 0.0746 -0.1535 -0.9853
vn 0.9980 -0.0467 -0.0438
vn -0.1507 0.9852 -0.0811
vn 0.2855 -0.9570 0.0524
vn 0.8417 -0.5362 -0.0636
vn -0.1512 0.9842 0.0926
vn -0.0193 -0.3601 -0.9327
vn -0.8432 -0.5368 0.0294
vn -0.3048 -0.9505 -0.0609
vn -0.5453 -0.6574 0.5201
vn -0.5921 -0.1675 0.7882
vn -0.0746 -0.1535 -0.9853
vn 0.1507 0.9852 -0.0811
vn -0.2855 -0.9569 0.0524
vn -0.8417 -0.5362 -0.0636
vn -0.1084 0.9646 0.2406
vn -1.0000 -0.0004 0.0011
vn 0.0000 -0.9168 -0.3994
vn -1.0000 -0.0004 0.0010
vn 0.0000 -0.9190 -0.3943
vn -1.0000 -0.0003 0.0008
vn 0.0000 -0.9223 -0.3865
vn -1.0000 -0.0003 0.0009
vn 0.0000 -0.9208 -0.3900
vn 0.0000 -0.5749 0.8182
vn 0.9978 0.0000 -0.0660
vn 0.9941 0.0000 -0.1086
vn 0.0000 -0.4906 0.8714
vn 0.9966 0.0000 -0.0822
vn 0.0000 -0.8271 -0.5620
vn 1.0000 0.0004 -0.0011
vn 0.0000 0.9168 0.3994
vn 0.0000 0.9190 0.3943
vn 1.0000 0.0003 -0.0008
vn 0.0000 0.9223 0.3865
vn 1.0000 0.0003 -0.0009
vn 0.0000 0.9208 0.3900
vn 0.0000 0.5749 -0.8182
vn -0.9978 0.0000 0.0659
vn -0.9941 0.0000 0.1085
vn 0.0000 0.4906 -0.8714
vn -0.9966 0.0000 0.0822
vn 0.0000 0.6191 -0.7853
vn 0.0000 0.8271 0.5620
vn 0.9978 -0.0000 -0.0659
vn 0.0000 -0.3871 0.9220
vn 0.9941 -0.0000 -0.1085
vn 0.0000 -0.6191 0.7853
vn -0.9978 0.0000 0.0660
vn 0.0000 0.3871 -0.9220
vn -0.9941 0.0000 0.1086
vn 0.0000 0.4760 0.8794
vn 0.0000 0.6210 -0.7838
vn 0.7057 -0.5010 0.5010
vn 0.7057 0.5010 0.5010
vn 0.7057 -0.5010 -0.5010
vn 0.7057 0.5010 -0.5010
vn -0.0322 -0.7067 0.7067
vn -0.0322 -0.7067 -0.7067
vn -0.0322 0.7067 -0.7067
vn -0.0322 0.7067 0.7067
vn -0.3054 -0.6733 0.6733
vn -0.3054 -0.6733 -0.6733
vn -0.3054 0.6733 0.6733
vn -0.3054 0.6733 -0.6733
usemtl mat_0-ship_diffuse.jpg
s off
f 1/1/1 2/2/1 3/3/1
f 4/4/2 5/5/2 6/6/2
f 7/7/3 8/8/3 4/4/3
f 3/3/4 9/9/4 7/7/4
f 4/4/5 3/3/5 7/7/5
f 10/10/6 11/11/6 12/12/6
f 13/13/7 14/14/7 10/10/7
f 15/15/8 16/16/8 17/17/8
f 12/12/9 18/18/9 15/15/9
f 19/19/3 20/20/3 21/21/3
f 22/22/1 23/23/1 24/24/1
f 25/25/10 26/26/10 27/27/10
f 28/28/11 26/26/11 29/29/11
f 30/30/12 31/31/12 28/28/12
f 32/32/13 33/33/13 30/30/13
f 34/34/14 35/35/14 36/36/14
f 37/37/15 38/38/15 39/39/15
f 40/40/16 41/41/16 42/42/16
f 43/43/17 42/42/17 44/44/17
f 45/45/18 46/46/18 41/41/18
f 50/47/19 37/37/19 51/48/19
f 49/49/20 52/50/20 53/51/20
f 54/52/21 55/53/21 56/54/21
f 44/44/22 41/41/22 57/55/22
f 40/40/23 58/56/23 52/50/23
f 60/57/24 61/58/24 62/59/24
f 37/37/25 63/60/25 64/61/25
f 65/62/26 66/63/26 67/64/26
f 68/65/27 43/43/27 44/44/27
f 67/64/28 46/46/28 48/66/28
f 69/67/29 48/66/29 70/68/29
f 55/53/30 74/69/30 75/70/30
f 66/63/31 44/44/31 57/55/31
f 76/71/32 65/62/32 73/72/32
f 59/73/33 55/53/33 75/70/33
f 78/74/6 79/75/6 80/76/6
f 81/77/7 82/78/7 78/74/7
f 83/79/8 84/80/8 85/81/8
f 80/76/9 86/82/9 83/79/9
f 87/83/3 88/84/3 89/85/3
f 90/86/1 91/87/1 92/88/1
f 95/89/34 96/90/34 97/91/34
f 98/92/35 99/93/35 95/89/35
f 100/94/36 101/95/36 102/96/36
f 103/97/37 96/90/37 101/95/37
f 104/98/5 105/99/5 106/100/5
f 107/101/1 108/102/1 2/2/1
f 4/4/2 109/103/2 5/5/2
f 7/7/3 110/104/3 8/8/3
f 3/3/4 111/105/4 9/9/4
f 10/10/6 14/14/6 11/11/6
f 13/13/7 113/106/7 14/14/7
f 15/15/8 18/18/8 16/16/8
f 12/12/9 11/11/9 18/18/9
f 19/19/3 114/107/3 20/20/3
f 22/22/1 115/108/1 23/23/1
f 25/25/10 29/29/10 26/26/10
f 28/28/11 31/31/11 26/26/11
f 30/30/12 33/33/12 31/31/12
f 32/32/13 116/109/13 33/33/13
f 34/34/14 117/110/14 35/35/14
f 37/37/38 118/111/38 38/38/38
f 40/40/39 45/45/39 41/41/39
f 43/43/40 58/56/40 42/42/40
f 45/45/41 48/66/41 46/46/41
f 47/112/42 70/68/42 48/66/42
f 50/47/43 118/111/43 37/37/43
f 49/49/44 40/40/44 52/50/44
f 54/52/45 60/57/45 55/53/45
f 44/44/46 42/42/46 41/41/46
f 40/40/47 42/42/47 58/56/47
f 60/57/48 54/52/48 61/58/48
f 37/37/49 39/39/49 63/60/49
f 65/62/50 68/65/50 66/63/50
f 68/65/51 76/71/51 43/43/51
f 67/64/52 66/63/52 46/46/52
f 69/67/53 67/64/53 48/66/53
f 37/37/54 64/61/54 72/113/54
f 55/53/55 60/57/55 74/69/55
f 66/63/56 68/65/56 44/44/56
f 76/71/57 68/65/57 65/62/57
f 60/57/58 62/59/58 77/114/58
f 78/74/6 82/78/6 79/75/6
f 81/77/7 119/115/7 82/78/7
f 83/79/8 86/82/8 84/80/8
f 80/76/9 79/75/9 86/82/9
f 87/83/3 120/116/3 88/84/3
f 90/86/1 121/117/1 91/87/1
f 95/89/34 99/93/34 96/90/34
f 98/92/35 122/118/35 99/93/35
f 100/94/36 103/97/36 101/95/36
f 103/97/37 97/91/37 96/90/37
f 104/98/5 123/119/5 105/99/5
f 124/120/59 125/121/59 126/122/59
f 127/123/60 128/124/60 129/125/60
f 130/126/61 131/127/61 132/128/61
f 133/129/62 134/130/62 135/131/62
f 136/132/63 137/133/63 138/134/63
f 139/135/64 140/136/64 141/137/64
f 142/138/65 143/139/65 144/140/65
f 145/141/66 146/142/66 147/143/66
f 148/144/67 149/145/67 150/146/67
f 151/147/68 152/148/68 153/149/68
f 156/150/69 152/148/69 157/151/69
f 158/152/70 149/145/70 159/153/70
f 160/154/71 152/148/71 161/155/71
f 169/156/3 170/157/3 171/158/3
f 172/159/72 173/160/72 174/161/72
f 175/162/1 176/163/1 177/164/1
f 180/165/73 181/166/73 182/167/73
f 183/168/74 128/124/74 184/169/74
f 186/170/75 134/130/75 187/171/75
f 188/172/76 189/173/76 190/174/76
f 191/175/77 140/136/77 192/176/77
f 193/177/78 143/139/78 194/178/78
f 195/179/79 146/142/79 196/180/79
f 197/181/80 149/145/80 198/182/80
f 151/147/81 199/183/81 200/184/81
f 156/150/82 199/183/82 200/184/82
f 201/185/83 149/145/83 198/182/83
f 160/154/84 199/183/84 200/184/84
f 167/186/85 166/187/85 168/188/85
f 203/189/1 204/190/1 205/191/1
f 206/192/86 207/193/86 208/194/86
f 175/162/3 176/163/3 209/195/3
f 124/120/59 216/196/59 125/121/59
f 127/123/60 184/169/60 128/124/60
f 130/126/61 185/197/61 131/127/61
f 133/129/62 187/171/62 134/130/62
f 136/132/63 217/198/63 137/133/63
f 139/135/64 192/176/64 140/136/64
f 142/138/65 194/178/65 143/139/65
f 145/141/66 196/180/66 146/142/66
f 148/144/67 198/182/67 149/145/67
f 151/147/87 200/184/87 152/148/87
f 154/199/88 198/182/88 149/145/88
f 156/150/89 200/184/89 152/148/89
f 158/152/70 198/182/70 149/145/70
f 160/154/71 200/184/71 152/148/71
f 166/187/90 218/200/90 167/186/90
f 169/156/3 219/201/3 170/157/3
f 172/159/72 220/202/72 173/160/72
f 180/165/73 126/122/73 181/166/73
f 183/168/74 222/203/74 128/124/74
f 186/170/75 223/204/75 134/130/75
f 188/172/76 224/205/76 189/173/76
f 191/175/77 225/206/77 140/136/77
f 193/177/78 144/140/78 143/139/78
f 195/179/79 226/207/79 146/142/79
f 197/181/80 227/208/80 149/145/80
f 151/147/91 228/209/91 199/183/91
f 154/199/92 155/210/92 149/145/92
f 156/150/93 157/151/93 199/183/93
f 201/185/83 229/211/83 149/145/83
f 160/154/84 230/212/84 199/183/84
f 203/189/1 171/158/1 204/190/1
f 206/192/86 232/213/86 207/193/86
f 175/162/3 233/214/3 176/163/3
f 235/215/4 236/216/4 237/217/4
f 239/218/94 241/219/94 242/220/94
f 239/218/95 240/221/95 245/222/95
f 235/215/4 246/223/4 236/216/4
f 238/224/4 235/215/4 237/217/4
f 252/225/96 253/226/96 254/227/96
f 255/228/97 252/225/97 254/227/97
f 253/226/98 256/229/98 254/227/98
f 256/229/99 255/228/99 254/227/99
f 257/230/100 258/231/100 259/232/100
f 260/233/101 261/234/101 262/235/101
f 262/235/102 263/236/102 264/237/102
f 257/230/103 263/236/103 265/238/103
f 258/231/104 248/239/104 251/240/104
f 261/234/105 250/241/105 249/242/105
f 263/236/106 248/239/106 265/238/106
f 271/243/1 272/244/1 273/245/1
f 257/230/100 265/238/100 258/231/100
f 260/233/101 274/246/101 261/234/101
f 257/230/103 264/237/103 263/236/103
f 258/231/104 265/238/104 248/239/104
f 261/234/105 274/246/105 250/241/105
f 261/234/107 249/242/107 247/247/107
f 271/243/1 275/248/1 272/244/1
l 269 270
l 213 214
l 178 221
l 242 243
l 210 211
l 51 72
l 202 231
l 3 112
l 215 234
l 266 268
l 4 112
l 268 270
l 244 245
l 162 163
l 69 71
l 164 165
l 56 59
l 247 263
l 266 267
