mtllib fern 02_lod2.mtl
o tree
# Position
v 2.23707 -0.50382 -0.59605 0.00392 0.85882 0.00000 1.00000
v -0.06137 -0.53207 -2.27812 0.00392 0.85882 0.00000 1.00000
v 31.37722 3.49216 -13.12194 0.05098 0.85882 0.00000 1.00000
v -1.61020 1.51752 -31.55974 0.05098 0.85882 0.00000 1.00000
v 38.24455 7.55076 -33.45172 0.09804 0.85882 0.00000 1.00000
v 10.35177 6.20340 -45.76073 0.09804 0.85882 0.00000 1.00000
v 41.27953 4.50381 -46.49647 0.14510 0.85882 0.00000 1.00000
v 17.04435 4.49195 -54.85140 0.14510 0.85882 0.00000 1.00000
v 35.07088 0.70180 -60.29994 0.19216 0.85882 0.00000 1.00000
v 30.02789 0.84246 -61.89050 0.19216 0.85882 0.00000 1.00000
v 2.23707 -0.50382 -0.59605 0.00392 0.85882 0.00000 1.00000
v -0.06137 -0.53207 -2.27812 0.00392 0.85882 0.00000 1.00000
v 31.37722 3.49216 -13.12194 0.05098 0.85882 0.00000 1.00000
v -1.61020 1.51752 -31.55974 0.05098 0.85882 0.00000 1.00000
v 38.24455 7.55076 -33.45172 0.09804 0.85882 0.00000 1.00000
v 10.35177 6.20340 -45.76073 0.09804 0.85882 0.00000 1.00000
v 41.27953 4.50381 -46.49647 0.14510 0.85882 0.00000 1.00000
v 17.04435 4.49195 -54.85140 0.14510 0.85882 0.00000 1.00000
v 35.07088 0.70180 -60.29994 0.19216 0.85882 0.00000 1.00000
v 30.02789 0.84246 -61.89050 0.19216 0.85882 0.00000 1.00000
v -0.11524 -0.49414 -2.13527 0.00392 0.06275 0.00000 1.00000
v -2.62689 -0.52039 -0.42093 0.00392 0.06275 0.00000 1.00000
v -1.22256 7.04309 -34.76616 0.04314 0.06275 0.00000 1.00000
v -32.30070 4.78814 -9.04768 0.04314 0.06275 0.00000 1.00000
v -17.90823 14.44231 -48.14985 0.09020 0.06275 0.00000 1.00000
v -41.47929 12.46611 -25.74142 0.09020 0.06275 0.00000 1.00000
v -29.42363 13.62999 -56.35744 0.09020 0.06275 0.00000 1.00000
v -47.96349 12.53799 -36.25336 0.09020 0.06275 0.00000 1.00000
v -45.75378 11.49820 -56.54214 0.09020 0.06275 0.00000 1.00000
v -49.48621 11.36180 -52.30578 0.09020 0.06275 0.00000 1.00000
v -0.11524 -0.49414 -2.13527 0.00392 0.06275 0.00000 1.00000
v -2.62689 -0.52039 -0.42093 0.00392 0.06275 0.00000 1.00000
v -1.22256 7.04309 -34.76616 0.04314 0.06275 0.00000 1.00000
v -32.30070 4.78814 -9.04768 0.04314 0.06275 0.00000 1.00000
v -17.90823 14.44231 -48.14985 0.09020 0.06275 0.00000 1.00000
v -41.47929 12.46611 -25.74142 0.09020 0.06275 0.00000 1.00000
v -29.42363 13.62999 -56.35744 0.09020 0.06275 0.00000 1.00000
v -47.96349 12.53799 -36.25336 0.09020 0.06275 0.00000 1.00000
v -45.75378 11.49820 -56.54214 0.09020 0.06275 0.00000 1.00000
v -49.48621 11.36180 -52.30578 0.09020 0.06275 0.00000 1.00000
v -1.63995 -0.47491 0.59542 0.00392 0.81176 0.00000 1.00000
v 1.19265 -0.48793 2.21610 0.00392 0.81176 0.00000 1.00000
v -31.80340 10.81182 14.55801 0.05882 0.81176 0.00000 1.00000
v 6.83166 9.03793 34.15617 0.05882 0.81176 0.00000 1.00000
v -36.74820 21.92094 34.41106 0.10588 0.81176 0.00000 1.00000
v -5.18885 20.26248 49.37356 0.10588 0.81176 0.00000 1.00000
v -40.09093 23.82938 48.31882 0.15294 0.81176 0.00000 1.00000
v -13.24365 22.52880 60.15997 0.15294 0.81176 0.00000 1.00000
v -34.53537 24.25478 64.83551 0.20784 0.81176 0.00000 1.00000
v -28.96989 24.01231 67.22292 0.20784 0.81176 0.00000 1.00000
v -1.63995 -0.47491 0.59542 0.00392 0.81176 0.00000 1.00000
v 1.19265 -0.48793 2.21610 0.00392 0.81176 0.00000 1.00000
v -31.80340 10.81182 14.55801 0.05882 0.81176 0.00000 1.00000
v 6.83166 9.03793 34.15617 0.05882 0.81176 0.00000 1.00000
v -36.74820 21.92094 34.41106 0.10588 0.81176 0.00000 1.00000
v -5.18885 20.26248 49.37356 0.10588 0.81176 0.00000 1.00000
v -40.09093 23.82938 48.31882 0.15294 0.81176 0.00000 1.00000
v -13.24365 22.52880 60.15997 0.15294 0.81176 0.00000 1.00000
v -34.53537 24.25478 64.83551 0.20784 0.81176 0.00000 1.00000
v -28.96989 24.01231 67.22292 0.20784 0.81176 0.00000 1.00000
v -0.73346 -0.34653 2.18296 0.00392 0.88235 0.00000 1.00000
v 1.13395 -0.33709 0.08063 0.00392 0.88235 0.00000 1.00000
v 4.14576 13.27866 29.33231 0.03529 0.88235 0.00000 1.00000
v 28.70659 12.96646 1.18348 0.03529 0.88235 0.00000 1.00000
v 18.19027 26.23388 36.80864 0.08235 0.88235 0.00000 1.00000
v 38.41413 26.23760 14.47705 0.08235 0.88235 0.00000 1.00000
v 28.39692 30.49058 42.83627 0.09020 0.88235 0.00000 1.00000
v 45.76099 30.54328 24.42533 0.09020 0.88235 0.00000 1.00000
v 43.34181 33.72218 43.19306 0.09020 0.88235 0.00000 1.00000
v 46.95528 33.72583 39.42286 0.09020 0.88235 0.00000 1.00000
v -0.73346 -0.34653 2.18296 0.00392 0.88235 0.00000 1.00000
v 1.13395 -0.33709 0.08063 0.00392 0.88235 0.00000 1.00000
v 4.14576 13.27866 29.33231 0.03529 0.88235 0.00000 1.00000
v 28.70659 12.96646 1.18348 0.03529 0.88235 0.00000 1.00000
v 18.19027 26.23388 36.80864 0.08235 0.88235 0.00000 1.00000
v 38.41413 26.23760 14.47705 0.08235 0.88235 0.00000 1.00000
v 28.39692 30.49058 42.83627 0.09020 0.88235 0.00000 1.00000
v 45.76099 30.54328 24.42533 0.09020 0.88235 0.00000 1.00000
v 43.34181 33.72218 43.19306 0.09020 0.88235 0.00000 1.00000
v 46.95528 33.72583 39.42286 0.09020 0.88235 0.00000 1.00000
v 4.02712 -0.24888 1.92618 0.00392 0.86275 0.00000 1.00000
v 2.49988 -0.29446 -0.90669 0.00392 0.86275 0.00000 1.00000
v 31.75803 21.15689 7.62263 0.05882 0.86275 0.00000 1.00000
v 9.33666 16.55953 -28.49845 0.05882 0.86275 0.00000 1.00000
v 41.15542 39.26832 -5.43928 0.10588 0.86275 0.00000 1.00000
v 21.43884 33.96497 -33.23096 0.10588 0.86275 0.00000 1.00000
v 49.13605 46.68197 -16.14155 0.15294 0.86275 0.00000 1.00000
v 30.97595 41.51876 -38.11161 0.15294 0.86275 0.00000 1.00000
v 49.66805 51.00454 -32.98294 0.20784 0.86275 0.00000 1.00000
v 45.78255 49.92675 -37.39558 0.20784 0.86275 0.00000 1.00000
v 4.02712 -0.24888 1.92618 0.00392 0.86275 0.00000 1.00000
v 2.49988 -0.29446 -0.90669 0.00392 0.86275 0.00000 1.00000
v 31.75803 21.15689 7.62263 0.05882 0.86275 0.00000 1.00000
v 9.33666 16.55953 -28.49845 0.05882 0.86275 0.00000 1.00000
v 41.15542 39.26832 -5.43928 0.10588 0.86275 0.00000 1.00000
v 21.43884 33.96497 -33.23096 0.10588 0.86275 0.00000 1.00000
v 49.13605 46.68197 -16.14155 0.15294 0.86275 0.00000 1.00000
v 30.97595 41.51876 -38.11161 0.15294 0.86275 0.00000 1.00000
v 49.66805 51.00454 -32.98294 0.20784 0.86275 0.00000 1.00000
v 45.78255 49.92675 -37.39558 0.20784 0.86275 0.00000 1.00000
# Normals
vn 0.08423 -0.99359 -0.07533
vn 0.06575 -0.99515 -0.07313
vn 0.13548 -0.97923 -0.15084
vn 0.12292 -0.98385 -0.13011
vn -0.00191 -0.99517 0.09819
vn 0.05746 -0.99835 -0.00196
vn -0.10127 -0.95392 0.28244
vn -0.07635 -0.96641 0.24542
vn -0.12578 -0.94051 0.31563
vn -0.11455 -0.94436 0.30833
vn -0.08423 0.99359 0.07533
vn -0.06575 0.99515 0.07313
vn -0.13548 0.97923 0.15084
vn -0.12292 0.98385 0.13011
vn 0.00191 0.99517 -0.09819
vn -0.05746 0.99835 0.00196
vn 0.10127 0.95392 -0.28244
vn 0.07635 0.96641 -0.24542
vn 0.12578 0.94051 -0.31563
vn 0.11455 0.94436 -0.30833
vn -0.11552 -0.97195 -0.20485
vn -0.11923 -0.97459 -0.18960
vn -0.17391 -0.94248 -0.28545
vn -0.15635 -0.95220 -0.26241
vn -0.00682 -0.99604 -0.08862
vn -0.07350 -0.98241 -0.17165
vn 0.11068 -0.99248 0.05231
vn 0.09086 -0.99560 0.02283
vn 0.12812 -0.98844 0.08105
vn 0.12619 -0.98947 0.07092
vn 0.11552 0.97195 0.20485
vn 0.11923 0.97459 0.18960
vn 0.17391 0.94248 0.28545
vn 0.15635 0.95220 0.26241
vn 0.00682 0.99604 0.08862
vn 0.07350 0.98241 0.17165
vn -0.11068 0.99248 -0.05231
vn -0.09086 0.99560 -0.02283
vn -0.12812 0.98844 -0.08105
vn -0.12619 0.98947 -0.07092
vn -0.19187 -0.93045 0.31217
vn -0.18187 -0.93305 0.31038
vn -0.24230 -0.88307 0.40183
vn -0.22611 -0.89969 0.37340
vn -0.14334 -0.96945 0.19903
vn -0.18499 -0.94165 0.28120
vn -0.07575 -0.99497 0.06555
vn -0.08758 -0.99253 0.08492
vn -0.06362 -0.99686 0.04708
vn -0.06727 -0.99652 0.04921
vn 0.19187 0.93045 -0.31217
vn 0.18187 0.93305 -0.31038
vn 0.24230 0.88307 -0.40183
vn 0.22611 0.89969 -0.37340
vn 0.14334 0.96945 -0.19903
vn 0.18499 0.94165 -0.28120
vn 0.07575 0.99497 -0.06555
vn 0.08758 0.99253 -0.08492
vn 0.06362 0.99686 -0.04708
vn 0.06727 0.99652 -0.04921
vn 0.39567 -0.84861 0.35114
vn 0.39607 -0.84972 0.34799
vn 0.45634 -0.79038 0.40873
vn 0.43638 -0.81181 0.38800
vn 0.30998 -0.90786 0.28232
vn 0.36776 -0.86898 0.33111
vn 0.21500 -0.95565 0.20127
vn 0.22633 -0.95135 0.20905
vn 0.20294 -0.95987 0.19357
vn 0.20253 -0.96053 0.19072
vn -0.39567 0.84861 -0.35114
vn -0.39607 0.84972 -0.34799
vn -0.45634 0.79038 -0.40873
vn -0.43638 0.81181 -0.38800
vn -0.30998 0.90786 -0.28232
vn -0.36776 0.86898 -0.33111
vn -0.21500 0.95565 -0.20127
vn -0.22633 0.95135 -0.20905
vn -0.20294 0.95987 -0.19357
vn -0.20253 0.96053 -0.19072
vn 0.60715 -0.73560 -0.30043
vn 0.59290 -0.74419 -0.30767
vn 0.68626 -0.63748 -0.35022
vn 0.66346 -0.66886 -0.33532
vn 0.56774 -0.78142 -0.25896
vn 0.62440 -0.72168 -0.29883
vn 0.48729 -0.84815 -0.20783
vn 0.50283 -0.83795 -0.21212
vn 0.47111 -0.85785 -0.20530
vn 0.48092 -0.85222 -0.20599
vn -0.60715 0.73560 0.30043
vn -0.59290 0.74419 0.30767
vn -0.68626 0.63748 0.35022
vn -0.66346 0.66886 0.33532
vn -0.56774 0.78142 0.25896
vn -0.62440 0.72168 0.29883
vn -0.48729 0.84815 0.20783
vn -0.50283 0.83795 0.21212
vn -0.47111 0.85785 0.20530
vn -0.48092 0.85222 0.20599
# Uv
vt 0.51563 -0.83284
vt 0.51563 -0.85472
vt 0.70186 -0.69847
vt 0.70502 -0.98909
vt 0.82908 -0.72659
vt 0.82841 -0.96097
vt 0.90909 -0.74534
vt 0.90198 -0.94222
vt 1.00000 -0.82347
vt 1.00000 -0.86409
vt 0.51563 -0.83284
vt 0.51563 -0.85472
vt 0.70186 -0.69847
vt 0.70502 -0.98909
vt 0.82908 -0.72659
vt 0.82841 -0.96097
vt 0.90909 -0.74534
vt 0.90198 -0.94222
vt 1.00000 -0.82347
vt 1.00000 -0.86409
vt 0.51563 -0.83284
vt 0.51563 -0.85472
vt 0.70267 -0.69847
vt 0.70449 -0.98909
vt 0.82900 -0.72659
vt 0.82822 -0.96097
vt 0.90807 -0.74534
vt 0.90261 -0.94222
vt 1.00000 -0.82347
vt 1.00000 -0.86409
vt 0.51563 -0.83284
vt 0.51563 -0.85472
vt 0.70267 -0.69847
vt 0.70449 -0.98909
vt 0.82900 -0.72659
vt 0.82822 -0.96097
vt 0.90807 -0.74534
vt 0.90261 -0.94222
vt 1.00000 -0.82347
vt 1.00000 -0.86409
vt 0.51563 -0.83284
vt 0.51563 -0.85472
vt 0.70403 -0.69847
vt 0.70347 -0.98909
vt 0.82899 -0.72659
vt 0.82799 -0.96097
vt 0.90644 -0.74534
vt 0.90385 -0.94222
vt 1.00000 -0.82347
vt 1.00000 -0.86409
vt 0.51563 -0.83284
vt 0.51563 -0.85472
vt 0.70403 -0.69847
vt 0.70347 -0.98909
vt 0.82899 -0.72659
vt 0.82799 -0.96097
vt 0.90644 -0.74534
vt 0.90385 -0.94222
vt 1.00000 -0.82347
vt 1.00000 -0.86409
vt 0.51563 -0.83284
vt 0.51563 -0.85472
vt 0.70385 -0.69847
vt 0.70052 -0.98909
vt 0.82938 -0.72659
vt 0.82814 -0.96097
vt 0.90643 -0.74534
vt 0.90718 -0.94222
vt 1.00000 -0.82347
vt 1.00000 -0.86409
vt 0.51563 -0.83284
vt 0.51563 -0.85472
vt 0.70385 -0.69847
vt 0.70052 -0.98909
vt 0.82938 -0.72659
vt 0.82814 -0.96097
vt 0.90643 -0.74534
vt 0.90718 -0.94222
vt 1.00000 -0.82347
vt 1.00000 -0.86409
vt 0.51563 -0.83284
vt 0.51563 -0.85472
vt 0.70171 -0.69847
vt 0.70412 -0.98909
vt 0.82873 -0.72659
vt 0.82802 -0.96097
vt 0.90880 -0.74534
vt 0.90279 -0.94222
vt 1.00000 -0.82347
vt 1.00000 -0.86409
vt 0.51563 -0.83284
vt 0.51563 -0.85472
vt 0.70171 -0.69847
vt 0.70412 -0.98909
vt 0.82873 -0.72659
vt 0.82802 -0.96097
vt 0.90880 -0.74534
vt 0.90279 -0.94222
vt 1.00000 -0.82347
vt 1.00000 -0.86409

g stylized tropical 01
usemtl stylized tropical 01
f 3/3/3 1/1/1 4/4/4
f 1/1/1 2/2/2 4/4/4
f 5/5/5 3/3/3 6/6/6
f 3/3/3 4/4/4 6/6/6
f 7/7/7 5/5/5 8/8/8
f 5/5/5 6/6/6 8/8/8
f 9/9/9 7/7/7 10/10/10
f 7/7/7 8/8/8 10/10/10
f 11/11/11 13/13/13 14/14/14
f 12/12/12 11/11/11 14/14/14
f 13/13/13 15/15/15 16/16/16
f 14/14/14 13/13/13 16/16/16
f 15/15/15 17/17/17 18/18/18
f 16/16/16 15/15/15 18/18/18
f 17/17/17 19/19/19 20/20/20
f 18/18/18 17/17/17 20/20/20
f 23/23/23 21/21/21 24/24/24
f 21/21/21 22/22/22 24/24/24
f 25/25/25 23/23/23 26/26/26
f 23/23/23 24/24/24 26/26/26
f 27/27/27 25/25/25 28/28/28
f 25/25/25 26/26/26 28/28/28
f 29/29/29 27/27/27 30/30/30
f 27/27/27 28/28/28 30/30/30
f 31/31/31 33/33/33 34/34/34
f 32/32/32 31/31/31 34/34/34
f 33/33/33 35/35/35 36/36/36
f 34/34/34 33/33/33 36/36/36
f 35/35/35 37/37/37 38/38/38
f 36/36/36 35/35/35 38/38/38
f 37/37/37 39/39/39 40/40/40
f 38/38/38 37/37/37 40/40/40
f 43/43/43 41/41/41 44/44/44
f 41/41/41 42/42/42 44/44/44
f 45/45/45 43/43/43 46/46/46
f 43/43/43 44/44/44 46/46/46
f 47/47/47 45/45/45 48/48/48
f 45/45/45 46/46/46 48/48/48
f 49/49/49 47/47/47 50/50/50
f 47/47/47 48/48/48 50/50/50
f 51/51/51 53/53/53 54/54/54
f 52/52/52 51/51/51 54/54/54
f 53/53/53 55/55/55 56/56/56
f 54/54/54 53/53/53 56/56/56
f 55/55/55 57/57/57 58/58/58
f 56/56/56 55/55/55 58/58/58
f 57/57/57 59/59/59 60/60/60
f 58/58/58 57/57/57 60/60/60
f 63/63/63 61/61/61 64/64/64
f 61/61/61 62/62/62 64/64/64
f 65/65/65 63/63/63 66/66/66
f 63/63/63 64/64/64 66/66/66
f 67/67/67 65/65/65 68/68/68
f 65/65/65 66/66/66 68/68/68
f 69/69/69 67/67/67 70/70/70
f 67/67/67 68/68/68 70/70/70
f 71/71/71 73/73/73 74/74/74
f 72/72/72 71/71/71 74/74/74
f 73/73/73 75/75/75 76/76/76
f 74/74/74 73/73/73 76/76/76
f 75/75/75 77/77/77 78/78/78
f 76/76/76 75/75/75 78/78/78
f 77/77/77 79/79/79 80/80/80
f 78/78/78 77/77/77 80/80/80
f 83/83/83 81/81/81 84/84/84
f 81/81/81 82/82/82 84/84/84
f 85/85/85 83/83/83 86/86/86
f 83/83/83 84/84/84 86/86/86
f 87/87/87 85/85/85 88/88/88
f 85/85/85 86/86/86 88/88/88
f 89/89/89 87/87/87 90/90/90
f 87/87/87 88/88/88 90/90/90
f 91/91/91 93/93/93 94/94/94
f 92/92/92 91/91/91 94/94/94
f 93/93/93 95/95/95 96/96/96
f 94/94/94 93/93/93 96/96/96
f 95/95/95 97/97/97 98/98/98
f 96/96/96 95/95/95 98/98/98
f 97/97/97 99/99/99 100/100/100
f 98/98/98 97/97/97 100/100/100

